<?xml version="1.0" encoding="UTF-8"?>
<svg width="400" height="60" viewBox="0 0 400 60" fill="none" xmlns="http://www.w3.org/2000/svg">
  <defs>
    <linearGradient id="logoGradient" x1="0%" y1="0%" x2="100%" y2="0%">
      <stop offset="0%" style="stop-color:#00d4ff;stop-opacity:1" />
      <stop offset="100%" style="stop-color:#7c3aed;stop-opacity:1" />
    </linearGradient>
  </defs>
  
  <g transform="translate(10, 10)">
    <path d="M35 26C35 20.4772 39.4772 16 45 16C45.5977 16 46.1809 16.0556 46.7456 16.1614C47.7476 11.7916 51.6952 8.5 56.4286 8.5C63.332 8.5 68.9286 13.0967 68.9286 19C68.9286 19.5977 68.873 20.1809 68.7672 20.7456C73.137 21.7476 76.4286 25.6952 76.4286 30.4286C76.4286 36.0381 72.227 40.4286 66.7857 40.4286H35C28.0964 40.4286 22.5 34.832 22.5 28.5C22.5 21.5964 28.0964 16.5 35 16.5V26Z" 
          fill="url(#logoGradient)" opacity="0.9"/>
    
    <path d="M44 30C44 26.5 46 24.5 48.5 24.5C51 24.5 53 26.5 53 30C53 33.5 51 35.5 48.5 35.5C46 35.5 44 33.5 44 30Z" 
          fill="white" opacity="0.95"/>
    <path d="M66 30C66 26.5 64 24.5 61.5 24.5C59 24.5 57 26.5 57 30C57 33.5 59 35.5 61.5 35.5C64 35.5 66 33.5 66 30Z" 
          fill="white" opacity="0.95"/>
    <rect x="53" y="28" width="4" height="4" fill="white" opacity="0.95"/>
  </g>
  
  <text x="105" y="40" font-family="Inter, sans-serif" font-size="26" font-weight="bold" fill="#f1f5f9">Adriano</text>
  <text x="205" y="40" font-family="Inter, sans-serif" font-size="26" font-weight="bold" fill="url(#logoGradient)">Matildes</text>
</svg>