<?xml version="1.0" encoding="UTF-8"?>
<svg width="200" height="40" viewBox="0 0 200 40" fill="none" xmlns="http://www.w3.org/2000/svg">
  <defs>
    <linearGradient id="logoGradient" x1="0%" y1="0%" x2="100%" y2="100%">
      <stop offset="0%" style="stop-color:#00d4ff;stop-opacity:1" />
      <stop offset="100%" style="stop-color:#7c3aed;stop-opacity:1" />
    </linearGradient>
  </defs>

  <!-- Icon: Cloud + Infinity (DevOps symbol) -->
  <g transform="translate(0, 5)">
    <!-- Cloud shape -->
    <path d="M25 20C25 15.5817 28.5817 12 33 12C33.4637 12 33.9123 12.0483 34.3416 12.1396C35.3006 8.10168 38.9508 5 43.3333 5C48.6783 5 53 9.02944 53 14C53 14.4637 52.9517 14.9123 52.8604 15.3416C56.8983 16.3006 60 19.9508 60 24.3333C60 29.6783 55.9706 34 51 34H25C19.4772 34 15 29.5228 15 24C15 18.4772 19.4772 14 25 14V20Z" 
          fill="url(#logoGradient)" opacity="0.9"/>

    <!-- Infinity symbol inside -->
    <path d="M32 24C32 21.5 33.5 20 35.5 20C37.5 20 39 21.5 39 24C39 26.5 37.5 28 35.5 28C33.5 28 32 26.5 32 24Z" 
          fill="white" opacity="0.9"/>
    <path d="M48 24C48 21.5 46.5 20 44.5 20C42.5 20 41 21.5 41 24C41 26.5 42.5 28 44.5 28C46.5 28 48 26.5 48 24Z" 
          fill="white" opacity="0.9"/>
    <rect x="39" y="23" width="2" height="2" fill="white" opacity="0.9"/>
  </g>

  <!-- Text: Adriano -->
  <text x="75" y="28" font-family="'Inter', sans-serif" font-size="20" font-weight="700" fill="#f1f5f9">
    Adriano
  </text>

  <!-- Text: Matildes with gradient -->
  <text x="75" y="28" font-family="'Inter', sans-serif" font-size="20" font-weight="700" fill="url(#logoGradient)" dx="75">
    Matildes
  </text>
</svg>